<?xml version="1.0" encoding="UTF-8" standalone="no"?>
<svg
   version="1.1"
   x="0px"
   y="0px"
   viewBox="0 0 70.699997 96.909142"
   xml:space="preserve"
   id="svg71"
   width="70.699997"
   height="96.909142"
   xmlns="http://www.w3.org/2000/svg"
   xmlns:svg="http://www.w3.org/2000/svg"><defs
     id="defs71" /><style
     type="text/css"
     id="style1">
	.st0{display:none;}
	.st1{display:inline;}
	.st2{fill:none;stroke:#000000;stroke-width:0.1;stroke-miterlimit:10;}
	.st3{fill:none;stroke:#000000;stroke-width:3;stroke-linecap:round;stroke-miterlimit:10;}
	.st4{fill:none;stroke:#000000;stroke-width:3;stroke-linecap:square;stroke-miterlimit:10;}
	.st5{fill:none;}
	.st6{fill:#010101;}
	.st7{fill:none;stroke:#010101;stroke-width:3;stroke-linecap:round;stroke-miterlimit:10;}
	.st8{fill:#020202;}
	.st9{fill:none;stroke:#010101;stroke-width:3;stroke-miterlimit:10;}
	.st10{fill:none;stroke:#010101;stroke-width:3;stroke-linecap:round;stroke-miterlimit:10;stroke-dasharray:5.2212,5.2212;}
	.st11{fill:none;stroke:#010101;stroke-width:3;stroke-linecap:round;stroke-miterlimit:10;stroke-dasharray:5.197,5.197;}
	.st12{fill:#050505;}
	.st13{fill:none;stroke:#000000;stroke-width:3;stroke-miterlimit:10;}
	.st14{fill:none;stroke:#020202;stroke-width:3;stroke-miterlimit:10;}
	.st15{fill:#040404;}
</style><g
     class="st0"
     id="g63"
     transform="translate(-28.7,-16.3)"><g
       class="st1"
       id="g62"><rect
         class="st2"
         width="128"
         height="128"
         id="rect1"
         x="0"
         y="0" /><line
         class="st2"
         x1="0"
         y1="124"
         x2="128"
         y2="124"
         id="line1" /><line
         class="st2"
         x1="0"
         y1="120"
         x2="128"
         y2="120"
         id="line2" /><line
         class="st2"
         x1="0"
         y1="116"
         x2="128"
         y2="116"
         id="line3" /><line
         class="st2"
         x1="0"
         y1="112"
         x2="128"
         y2="112"
         id="line4" /><line
         class="st2"
         x1="0"
         y1="108"
         x2="128"
         y2="108"
         id="line5" /><line
         class="st2"
         x1="0"
         y1="104"
         x2="128"
         y2="104"
         id="line6" /><line
         class="st2"
         x1="0"
         y1="100"
         x2="128"
         y2="100"
         id="line7" /><line
         class="st2"
         x1="0"
         y1="96"
         x2="128"
         y2="96"
         id="line8" /><line
         class="st2"
         x1="0"
         y1="92"
         x2="128"
         y2="92"
         id="line9" /><line
         class="st2"
         x1="0"
         y1="88"
         x2="128"
         y2="88"
         id="line10" /><line
         class="st2"
         x1="0"
         y1="84"
         x2="128"
         y2="84"
         id="line11" /><line
         class="st2"
         x1="0"
         y1="80"
         x2="128"
         y2="80"
         id="line12" /><line
         class="st2"
         x1="0"
         y1="76"
         x2="128"
         y2="76"
         id="line13" /><line
         class="st2"
         x1="0"
         y1="72"
         x2="128"
         y2="72"
         id="line14" /><line
         class="st2"
         x1="0"
         y1="68"
         x2="128"
         y2="68"
         id="line15" /><line
         class="st2"
         x1="0"
         y1="64"
         x2="128"
         y2="64"
         id="line16" /><line
         class="st2"
         x1="0"
         y1="60"
         x2="128"
         y2="60"
         id="line17" /><line
         class="st2"
         x1="0"
         y1="56"
         x2="128"
         y2="56"
         id="line18" /><line
         class="st2"
         x1="0"
         y1="52"
         x2="128"
         y2="52"
         id="line19" /><line
         class="st2"
         x1="0"
         y1="48"
         x2="128"
         y2="48"
         id="line20" /><line
         class="st2"
         x1="0"
         y1="44"
         x2="128"
         y2="44"
         id="line21" /><line
         class="st2"
         x1="0"
         y1="40"
         x2="128"
         y2="40"
         id="line22" /><line
         class="st2"
         x1="0"
         y1="36"
         x2="128"
         y2="36"
         id="line23" /><line
         class="st2"
         x1="0"
         y1="32"
         x2="128"
         y2="32"
         id="line24" /><line
         class="st2"
         x1="0"
         y1="28"
         x2="128"
         y2="28"
         id="line25" /><line
         class="st2"
         x1="0"
         y1="24"
         x2="128"
         y2="24"
         id="line26" /><line
         class="st2"
         x1="0"
         y1="20"
         x2="128"
         y2="20"
         id="line27" /><line
         class="st2"
         x1="0"
         y1="16"
         x2="128"
         y2="16"
         id="line28" /><line
         class="st2"
         x1="0"
         y1="12"
         x2="128"
         y2="12"
         id="line29" /><line
         class="st2"
         x1="0"
         y1="8"
         x2="128"
         y2="8"
         id="line30" /><line
         class="st2"
         x1="0"
         y1="4"
         x2="128"
         y2="4"
         id="line31" /><line
         class="st2"
         x1="124"
         y1="0"
         x2="124"
         y2="128"
         id="line32" /><line
         class="st2"
         x1="120"
         y1="0"
         x2="120"
         y2="128"
         id="line33" /><line
         class="st2"
         x1="116"
         y1="0"
         x2="116"
         y2="128"
         id="line34" /><line
         class="st2"
         x1="112"
         y1="0"
         x2="112"
         y2="128"
         id="line35" /><line
         class="st2"
         x1="108"
         y1="0"
         x2="108"
         y2="128"
         id="line36" /><line
         class="st2"
         x1="104"
         y1="0"
         x2="104"
         y2="128"
         id="line37" /><line
         class="st2"
         x1="100"
         y1="0"
         x2="100"
         y2="128"
         id="line38" /><line
         class="st2"
         x1="96"
         y1="0"
         x2="96"
         y2="128"
         id="line39" /><line
         class="st2"
         x1="92"
         y1="0"
         x2="92"
         y2="128"
         id="line40" /><line
         class="st2"
         x1="88"
         y1="0"
         x2="88"
         y2="128"
         id="line41" /><line
         class="st2"
         x1="84"
         y1="0"
         x2="84"
         y2="128"
         id="line42" /><line
         class="st2"
         x1="80"
         y1="0"
         x2="80"
         y2="128"
         id="line43" /><line
         class="st2"
         x1="76"
         y1="0"
         x2="76"
         y2="128"
         id="line44" /><line
         class="st2"
         x1="72"
         y1="0"
         x2="72"
         y2="128"
         id="line45" /><line
         class="st2"
         x1="68"
         y1="0"
         x2="68"
         y2="128"
         id="line46" /><line
         class="st2"
         x1="64"
         y1="0"
         x2="64"
         y2="128"
         id="line47" /><line
         class="st2"
         x1="60"
         y1="0"
         x2="60"
         y2="128"
         id="line48" /><line
         class="st2"
         x1="56"
         y1="0"
         x2="56"
         y2="128"
         id="line49" /><line
         class="st2"
         x1="52"
         y1="0"
         x2="52"
         y2="128"
         id="line50" /><line
         class="st2"
         x1="48"
         y1="0"
         x2="48"
         y2="128"
         id="line51" /><line
         class="st2"
         x1="44"
         y1="0"
         x2="44"
         y2="128"
         id="line52" /><line
         class="st2"
         x1="40"
         y1="0"
         x2="40"
         y2="128"
         id="line53" /><line
         class="st2"
         x1="36"
         y1="0"
         x2="36"
         y2="128"
         id="line54" /><line
         class="st2"
         x1="32"
         y1="0"
         x2="32"
         y2="128"
         id="line55" /><line
         class="st2"
         x1="28"
         y1="0"
         x2="28"
         y2="128"
         id="line56" /><line
         class="st2"
         x1="24"
         y1="0"
         x2="24"
         y2="128"
         id="line57" /><line
         class="st2"
         x1="20"
         y1="0"
         x2="20"
         y2="128"
         id="line58" /><line
         class="st2"
         x1="16"
         y1="0"
         x2="16"
         y2="128"
         id="line59" /><line
         class="st2"
         x1="12"
         y1="0"
         x2="12"
         y2="128"
         id="line60" /><line
         class="st2"
         x1="8"
         y1="0"
         x2="8"
         y2="128"
         id="line61" /><line
         class="st2"
         x1="4"
         y1="0"
         x2="4"
         y2="128"
         id="line62" /></g></g><g
     id="g70"
     transform="translate(-28.7,-16.3)"><g
       id="g69"><path
         d="M 77.5,22.1 H 65.7 V 17.8 C 65.7,17 65,16.3 64.2,16.3 v 0 c -0.8,0 -1.5,0.7 -1.5,1.5 v 4.3 H 50.5 v 24.7 h -2.9 v 9.1 h 2.9 v 16 l 10.1,6.8 c -5.8,1.5 -10,6.7 -10.1,12.9 h 27 C 77.4,85.4 73.2,80.2 67.4,78.7 l 10.1,-6.8 v -16 h 3.3 v -9.1 h -3.3 z"
         id="path63" /><rect
         x="35.599998"
         y="46.799999"
         width="3.0999999"
         height="9.1000004"
         id="rect63" /><rect
         x="41.599998"
         y="46.799999"
         width="3.0999999"
         height="9.1000004"
         id="rect64" /><path
         d="m 97.8,46.8 h -1.9 v 9.1 h 1.9 c 0.9,0 1.6,-0.7 1.6,-1.6 v -5.9 c -0.1,-0.9 -0.8,-1.6 -1.6,-1.6 z"
         id="path64" /><rect
         x="83.699997"
         y="46.799999"
         width="3.0999999"
         height="9.1000004"
         id="rect65" /><path
         d="M 28.7,48.7 V 54 c 0,1 0.8,1.9 1.9,1.9 h 2.1 v -9.1 h -2.1 c -1.1,0 -1.9,0.9 -1.9,1.9 z"
         id="path65" /><rect
         x="89.800003"
         y="46.799999"
         width="3.0999999"
         height="9.1000004"
         id="rect66" /><g
         id="g68"><path
           class="st3"
           d="m 68.8,94.9 c -0.4,0.5 -2,2.3 -4.5,2.4 -2.9,0.2 -4.8,-2 -5.1,-2.4"
           id="path66" /><path
           class="st3"
           d="m 74.2,99.7 c -0.7,0.9 -4.3,5.1 -9.8,5.2 -6,0.2 -9.8,-4.4 -10.5,-5.2"
           id="path67" /><path
           class="st3"
           d="m 79.1,103.5 c -1,1.3 -6.2,7.9 -14.6,8.2 -9.1,0.3 -14.8,-7 -15.7,-8.2"
           id="path68" /></g></g></g></svg>
