<?xml version="1.0" encoding="UTF-8"?>
<svg width="100px" height="100px" version="1.1" viewBox="0 0 1200 1200" fill="#4d7c0f"
  xmlns="http://www.w3.org/2000/svg">
  <g>
    <path
      d="m1176 552h-68.328c-22.801-242.98-216.71-436.87-459.67-459.67v-68.328h-96v68.328c-242.98 22.801-436.87 216.7-459.67 459.67h-68.328v96h68.328c22.801 242.96 216.7 436.87 459.67 459.67v68.328h96v-68.328c242.96-22.801 436.87-216.71 459.67-459.67h68.328zm-528 459.13v-147.13h-96v147.13c-189.98-22.043-341.07-173.16-363.13-363.13h147.13v-96h-147.13c22.059-189.98 173.15-341.07 363.13-363.13v147.13h96v-147.13c189.97 22.059 341.09 173.15 363.13 363.13h-147.13v96h147.13c-22.043 189.97-173.16 341.09-363.13 363.13z" />
    <path d="m684 600c0 46.391-37.609 84-84 84s-84-37.609-84-84 37.609-84 84-84 84 37.609 84 84" />
  </g>
</svg>
